<?xml version="1.0" encoding="UTF-8" standalone="no"?>
<!DOCTYPE svg PUBLIC "-//W3C//DTD SVG 1.1//EN"
 "http://www.w3.org/Graphics/SVG/1.1/DTD/svg11.dtd">
<!-- Generated by graphviz version 2.40.1 (20161225.0304)
 -->
<!-- Title: models_diagram Pages: 1 -->
<svg width="1120pt" height="766pt"
 viewBox="0.00 0.00 1120.13 765.57" xmlns="http://www.w3.org/2000/svg" xmlns:xlink="http://www.w3.org/1999/xlink">
<g id="graph0" class="graph" transform="scale(1 1) rotate(0) translate(36 729.5696)">
<title>models_diagram</title>
<polygon fill="#ffffff" stroke="transparent" points="-36,36 -36,-729.5696 1084.1276,-729.5696 1084.1276,36 -36,36"/>
<!-- Article -->
<g id="node1" class="node">
<title>Article</title>
<polygon fill="#add8e6" stroke="transparent" points=".5,-409.1972 .5,-431.1972 85.5,-431.1972 85.5,-409.1972 .5,-409.1972"/>
<polygon fill="none" stroke="#000000" points=".5,-409.1972 .5,-431.1972 85.5,-431.1972 85.5,-409.1972 .5,-409.1972"/>
<text text-anchor="start" x="29.1185" y="-418.1972" font-family="Times,serif" font-weight="bold" font-size="10.00" fill="#000000">Article</text>
<polygon fill="none" stroke="#000000" points=".5,-387.1972 .5,-409.1972 85.5,-409.1972 85.5,-387.1972 .5,-387.1972"/>
<text text-anchor="start" x="5.5" y="-396.1972" font-family="Times,serif" text-decoration="underline" font-size="10.00" fill="#000000">id</text>
<text text-anchor="start" x="13.279" y="-396.1972" font-family="Times,serif" font-size="10.00" fill="#000000">: NUMBER</text>
<polygon fill="none" stroke="#000000" points=".5,-365.1972 .5,-387.1972 85.5,-387.1972 85.5,-365.1972 .5,-365.1972"/>
<text text-anchor="start" x="5.5" y="-373.1972" font-family="Times,serif" font-size="10.00" fill="#000000">title: STRING</text>
<polygon fill="none" stroke="#000000" points=".5,-343.1972 .5,-365.1972 85.5,-365.1972 85.5,-343.1972 .5,-343.1972"/>
<text text-anchor="start" x="5.5" y="-351.1972" font-family="Times,serif" font-size="10.00" fill="#000000">text: TEXT</text>
<polygon fill="none" stroke="#000000" points=".5,-321.1972 .5,-343.1972 85.5,-343.1972 85.5,-321.1972 .5,-321.1972"/>
<text text-anchor="start" x="5.5" y="-329.1972" font-family="Times,serif" font-size="10.00" fill="#000000">createdAt: DATE</text>
<polygon fill="none" stroke="#000000" points=".5,-299.1972 .5,-321.1972 85.5,-321.1972 85.5,-299.1972 .5,-299.1972"/>
<text text-anchor="start" x="5.5" y="-307.1972" font-family="Times,serif" font-size="10.00" fill="#000000">updatedAt: DATE</text>
<polygon fill="none" stroke="#000000" points=".5,-277.1972 .5,-299.1972 85.5,-299.1972 85.5,-277.1972 .5,-277.1972"/>
<text text-anchor="start" x="5.371" y="-286.1972" font-family="Times,serif" font-style="italic" text-decoration="underline" font-size="10.00" fill="#000000">UserId</text>
<text text-anchor="start" x="32.576" y="-286.1972" font-family="Times,serif" font-size="10.00" fill="#000000">: NUMBER</text>
</g>
<!-- User -->
<g id="node6" class="node">
<title>User</title>
<polygon fill="#add8e6" stroke="transparent" points="642.5,-442.1972 642.5,-464.1972 733.5,-464.1972 733.5,-442.1972 642.5,-442.1972"/>
<polygon fill="none" stroke="#000000" points="642.5,-442.1972 642.5,-464.1972 733.5,-464.1972 733.5,-442.1972 642.5,-442.1972"/>
<text text-anchor="start" x="678.562" y="-451.1972" font-family="Times,serif" font-weight="bold" font-size="10.00" fill="#000000">User</text>
<polygon fill="none" stroke="#000000" points="642.5,-420.1972 642.5,-442.1972 733.5,-442.1972 733.5,-420.1972 642.5,-420.1972"/>
<text text-anchor="start" x="647.5" y="-429.1972" font-family="Times,serif" text-decoration="underline" font-size="10.00" fill="#000000">id</text>
<text text-anchor="start" x="655.279" y="-429.1972" font-family="Times,serif" font-size="10.00" fill="#000000">: NUMBER</text>
<polygon fill="none" stroke="#000000" points="642.5,-398.1972 642.5,-420.1972 733.5,-420.1972 733.5,-398.1972 642.5,-398.1972"/>
<text text-anchor="start" x="647.5" y="-406.1972" font-family="Times,serif" font-size="10.00" fill="#000000">name: STRING</text>
<polygon fill="none" stroke="#000000" points="642.5,-376.1972 642.5,-398.1972 733.5,-398.1972 733.5,-376.1972 642.5,-376.1972"/>
<text text-anchor="start" x="647.318" y="-384.1972" font-family="Times,serif" font-size="10.00" fill="#000000">firstName: STRING</text>
<polygon fill="none" stroke="#000000" points="642.5,-354.1972 642.5,-376.1972 733.5,-376.1972 733.5,-354.1972 642.5,-354.1972"/>
<text text-anchor="start" x="647.5" y="-362.1972" font-family="Times,serif" font-size="10.00" fill="#000000">birth: STRING</text>
<polygon fill="none" stroke="#000000" points="642.5,-332.1972 642.5,-354.1972 733.5,-354.1972 733.5,-332.1972 642.5,-332.1972"/>
<text text-anchor="start" x="647.5" y="-340.1972" font-family="Times,serif" font-size="10.00" fill="#000000">email: STRING</text>
<polygon fill="none" stroke="#000000" points="642.5,-310.1972 642.5,-332.1972 733.5,-332.1972 733.5,-310.1972 642.5,-310.1972"/>
<text text-anchor="start" x="647.5" y="-318.1972" font-family="Times,serif" font-size="10.00" fill="#000000">password: STRING</text>
<polygon fill="none" stroke="#000000" points="642.5,-288.1972 642.5,-310.1972 733.5,-310.1972 733.5,-288.1972 642.5,-288.1972"/>
<text text-anchor="start" x="647.5" y="-296.1972" font-family="Times,serif" font-size="10.00" fill="#000000">createdAt: DATE</text>
<polygon fill="none" stroke="#000000" points="642.5,-266.1972 642.5,-288.1972 733.5,-288.1972 733.5,-266.1972 642.5,-266.1972"/>
<text text-anchor="start" x="647.5" y="-274.1972" font-family="Times,serif" font-size="10.00" fill="#000000">updatedAt: DATE</text>
<polygon fill="none" stroke="#000000" points="642.5,-244.1972 642.5,-266.1972 733.5,-266.1972 733.5,-244.1972 642.5,-244.1972"/>
<text text-anchor="start" x="647.0365" y="-253.1972" font-family="Times,serif" font-style="italic" text-decoration="underline" font-size="10.00" fill="#000000">SalaryId</text>
<text text-anchor="start" x="680.9105" y="-253.1972" font-family="Times,serif" font-size="10.00" fill="#000000">: NUMBER</text>
</g>
<!-- Article&#45;&gt;User -->
<g id="edge3" class="edge">
<title>Article&#45;&gt;User</title>
<path fill="none" stroke="#000000" stroke-width=".75" d="M91.3733,-354.1972C212.2641,-354.1972 524.0076,-354.1972 641.6479,-354.1972"/>
<polygon fill="#000000" stroke="#000000" stroke-width=".75" points="91.0697,-354.1973 85.0697,-351.4972 88.0697,-354.1972 85.0697,-354.1972 85.0697,-354.1972 85.0697,-354.1972 88.0697,-354.1972 85.0696,-356.8972 91.0697,-354.1973 91.0697,-354.1973"/>
</g>
<!-- Comment -->
<g id="node2" class="node">
<title>Comment</title>
<polygon fill="#add8e6" stroke="transparent" points="845.9708,-671.5696 845.9708,-693.5696 930.9708,-693.5696 930.9708,-671.5696 845.9708,-671.5696"/>
<polygon fill="none" stroke="#000000" points="845.9708,-671.5696 845.9708,-693.5696 930.9708,-693.5696 930.9708,-671.5696 845.9708,-671.5696"/>
<text text-anchor="start" x="868.7483" y="-680.5696" font-family="Times,serif" font-weight="bold" font-size="10.00" fill="#000000">Comment</text>
<polygon fill="none" stroke="#000000" points="845.9708,-649.5696 845.9708,-671.5696 930.9708,-671.5696 930.9708,-649.5696 845.9708,-649.5696"/>
<text text-anchor="start" x="850.9708" y="-658.5696" font-family="Times,serif" text-decoration="underline" font-size="10.00" fill="#000000">id</text>
<text text-anchor="start" x="858.7498" y="-658.5696" font-family="Times,serif" font-size="10.00" fill="#000000">: NUMBER</text>
<polygon fill="none" stroke="#000000" points="845.9708,-627.5696 845.9708,-649.5696 930.9708,-649.5696 930.9708,-627.5696 845.9708,-627.5696"/>
<text text-anchor="start" x="850.9708" y="-635.5696" font-family="Times,serif" font-size="10.00" fill="#000000">text: STRING</text>
<polygon fill="none" stroke="#000000" points="845.9708,-605.5696 845.9708,-627.5696 930.9708,-627.5696 930.9708,-605.5696 845.9708,-605.5696"/>
<text text-anchor="start" x="850.9708" y="-613.5696" font-family="Times,serif" font-size="10.00" fill="#000000">createdAt: DATE</text>
<polygon fill="none" stroke="#000000" points="845.9708,-583.5696 845.9708,-605.5696 930.9708,-605.5696 930.9708,-583.5696 845.9708,-583.5696"/>
<text text-anchor="start" x="850.9708" y="-591.5696" font-family="Times,serif" font-size="10.00" fill="#000000">updatedAt: DATE</text>
<polygon fill="none" stroke="#000000" points="845.9708,-561.5696 845.9708,-583.5696 930.9708,-583.5696 930.9708,-561.5696 845.9708,-561.5696"/>
<text text-anchor="start" x="850.8418" y="-570.5696" font-family="Times,serif" font-style="italic" text-decoration="underline" font-size="10.00" fill="#000000">UserId</text>
<text text-anchor="start" x="878.0468" y="-570.5696" font-family="Times,serif" font-size="10.00" fill="#000000">: NUMBER</text>
</g>
<!-- Comment&#45;&gt;User -->
<g id="edge4" class="edge">
<title>Comment&#45;&gt;User</title>
<path fill="none" stroke="#000000" stroke-width=".75" d="M841.7328,-564.517C809.0992,-520.0161 765.5804,-460.6717 733.0918,-416.3685"/>
<polygon fill="#000000" stroke="#000000" stroke-width=".75" points="841.9079,-564.7558 843.2788,-571.191 843.682,-567.1751 845.4561,-569.5943 845.4561,-569.5943 845.4561,-569.5943 843.682,-567.1751 847.6334,-567.9976 841.9079,-564.7558 841.9079,-564.7558"/>
</g>
<!-- Employee -->
<g id="node3" class="node">
<title>Employee</title>
<polygon fill="#add8e6" stroke="transparent" points="715.5,-660.1972 715.5,-682.1972 806.5,-682.1972 806.5,-660.1972 715.5,-660.1972"/>
<polygon fill="none" stroke="#000000" points="715.5,-660.1972 715.5,-682.1972 806.5,-682.1972 806.5,-660.1972 715.5,-660.1972"/>
<text text-anchor="start" x="740.7275" y="-669.1972" font-family="Times,serif" font-weight="bold" font-size="10.00" fill="#000000">Employee</text>
<polygon fill="none" stroke="#000000" points="715.5,-638.1972 715.5,-660.1972 806.5,-660.1972 806.5,-638.1972 715.5,-638.1972"/>
<text text-anchor="start" x="720.5" y="-647.1972" font-family="Times,serif" text-decoration="underline" font-size="10.00" fill="#000000">id</text>
<text text-anchor="start" x="728.279" y="-647.1972" font-family="Times,serif" font-size="10.00" fill="#000000">: NUMBER</text>
<polygon fill="none" stroke="#000000" points="715.5,-616.1972 715.5,-638.1972 806.5,-638.1972 806.5,-616.1972 715.5,-616.1972"/>
<text text-anchor="start" x="720.318" y="-624.1972" font-family="Times,serif" font-size="10.00" fill="#000000">firstName: STRING</text>
<polygon fill="none" stroke="#000000" points="715.5,-594.1972 715.5,-616.1972 806.5,-616.1972 806.5,-594.1972 715.5,-594.1972"/>
<text text-anchor="start" x="720.5" y="-602.1972" font-family="Times,serif" font-size="10.00" fill="#000000">lastName: STRING</text>
<polygon fill="none" stroke="#000000" points="715.5,-572.1972 715.5,-594.1972 806.5,-594.1972 806.5,-572.1972 715.5,-572.1972"/>
<text text-anchor="start" x="720.5" y="-580.1972" font-family="Times,serif" font-size="10.00" fill="#000000">createdAt: DATE</text>
<polygon fill="none" stroke="#000000" points="715.5,-550.1972 715.5,-572.1972 806.5,-572.1972 806.5,-550.1972 715.5,-550.1972"/>
<text text-anchor="start" x="720.5" y="-558.1972" font-family="Times,serif" font-size="10.00" fill="#000000">updatedAt: DATE</text>
</g>
<!-- Inventory -->
<g id="node4" class="node">
<title>Inventory</title>
<polygon fill="#add8e6" stroke="transparent" points="274.5,-275.1972 274.5,-297.1972 364.5,-297.1972 364.5,-275.1972 274.5,-275.1972"/>
<polygon fill="none" stroke="#000000" points="274.5,-275.1972 274.5,-297.1972 364.5,-297.1972 364.5,-275.1972 274.5,-275.1972"/>
<text text-anchor="start" x="300.062" y="-284.1972" font-family="Times,serif" font-weight="bold" font-size="10.00" fill="#000000">Inventory</text>
<polygon fill="none" stroke="#000000" points="274.5,-253.1972 274.5,-275.1972 364.5,-275.1972 364.5,-253.1972 274.5,-253.1972"/>
<text text-anchor="start" x="279.5" y="-262.1972" font-family="Times,serif" text-decoration="underline" font-size="10.00" fill="#000000">id</text>
<text text-anchor="start" x="287.279" y="-262.1972" font-family="Times,serif" font-size="10.00" fill="#000000">: NUMBER</text>
<polygon fill="none" stroke="#000000" points="274.5,-231.1972 274.5,-253.1972 364.5,-253.1972 364.5,-231.1972 274.5,-231.1972"/>
<text text-anchor="start" x="279.0855" y="-239.1972" font-family="Times,serif" font-size="10.00" fill="#000000">quantity: NUMBER</text>
<polygon fill="none" stroke="#000000" points="274.5,-209.1972 274.5,-231.1972 364.5,-231.1972 364.5,-209.1972 274.5,-209.1972"/>
<text text-anchor="start" x="279.5" y="-217.1972" font-family="Times,serif" font-size="10.00" fill="#000000">name: STRING</text>
<polygon fill="none" stroke="#000000" points="274.5,-187.1972 274.5,-209.1972 364.5,-209.1972 364.5,-187.1972 274.5,-187.1972"/>
<text text-anchor="start" x="279.5" y="-195.1972" font-family="Times,serif" font-size="10.00" fill="#000000">createdAt: DATE</text>
<polygon fill="none" stroke="#000000" points="274.5,-165.1972 274.5,-187.1972 364.5,-187.1972 364.5,-165.1972 274.5,-165.1972"/>
<text text-anchor="start" x="279.5" y="-173.1972" font-family="Times,serif" font-size="10.00" fill="#000000">updatedAt: DATE</text>
</g>
<!-- Role -->
<g id="node5" class="node">
<title>Role</title>
<polygon fill="#add8e6" stroke="transparent" points="965.6276,-110 965.6276,-132 1048.6276,-132 1048.6276,-110 965.6276,-110"/>
<polygon fill="none" stroke="#000000" points="965.6276,-110 965.6276,-132 1048.6276,-132 1048.6276,-110 965.6276,-110"/>
<text text-anchor="start" x="997.6841" y="-119" font-family="Times,serif" font-weight="bold" font-size="10.00" fill="#000000">Role</text>
<polygon fill="none" stroke="#000000" points="965.6276,-88 965.6276,-110 1048.6276,-110 1048.6276,-88 965.6276,-88"/>
<text text-anchor="start" x="970.6276" y="-97" font-family="Times,serif" text-decoration="underline" font-size="10.00" fill="#000000">id</text>
<text text-anchor="start" x="978.4066" y="-97" font-family="Times,serif" font-size="10.00" fill="#000000">: NUMBER</text>
<polygon fill="none" stroke="#000000" points="965.6276,-66 965.6276,-88 1048.6276,-88 1048.6276,-66 965.6276,-66"/>
<text text-anchor="start" x="970.6276" y="-74" font-family="Times,serif" font-size="10.00" fill="#000000">name: STRING</text>
<polygon fill="none" stroke="#000000" points="965.6276,-44 965.6276,-66 1048.6276,-66 1048.6276,-44 965.6276,-44"/>
<text text-anchor="start" x="970.6276" y="-52" font-family="Times,serif" font-size="10.00" fill="#000000">role: ENUM</text>
<polygon fill="none" stroke="#000000" points="965.6276,-22 965.6276,-44 1048.6276,-44 1048.6276,-22 965.6276,-22"/>
<text text-anchor="start" x="970.6276" y="-30" font-family="Times,serif" font-size="10.00" fill="#000000">createdAt: DATE</text>
<polygon fill="none" stroke="#000000" points="965.6276,0 965.6276,-22 1048.6276,-22 1048.6276,0 965.6276,0"/>
<text text-anchor="start" x="970.3326" y="-8" font-family="Times,serif" font-size="10.00" fill="#000000">updatedAt: DATE</text>
</g>
<!-- user_role -->
<g id="node9" class="node">
<title>user_role</title>
<polygon fill="#add8e6" stroke="transparent" points="820.3912,-228.3536 820.3912,-250.3536 907.3912,-250.3536 907.3912,-228.3536 820.3912,-228.3536"/>
<polygon fill="none" stroke="#000000" points="820.3912,-228.3536 820.3912,-250.3536 907.3912,-250.3536 907.3912,-228.3536 820.3912,-228.3536"/>
<text text-anchor="start" x="845.2892" y="-237.3536" font-family="Times,serif" font-weight="bold" font-size="10.00" fill="#000000">user_role</text>
<polygon fill="none" stroke="#000000" points="820.3912,-206.3536 820.3912,-228.3536 907.3912,-228.3536 907.3912,-206.3536 820.3912,-206.3536"/>
<text text-anchor="start" x="825.3912" y="-214.3536" font-family="Times,serif" font-size="10.00" fill="#000000">createdAt: DATE</text>
<polygon fill="none" stroke="#000000" points="820.3912,-184.3536 820.3912,-206.3536 907.3912,-206.3536 907.3912,-184.3536 820.3912,-184.3536"/>
<text text-anchor="start" x="825.3912" y="-192.3536" font-family="Times,serif" font-size="10.00" fill="#000000">updatedAt: DATE</text>
<polygon fill="none" stroke="#000000" points="820.3912,-162.3536 820.3912,-184.3536 907.3912,-184.3536 907.3912,-162.3536 820.3912,-162.3536"/>
<text text-anchor="start" x="825.1467" y="-171.3536" font-family="Times,serif" text-decoration="underline" font-size="10.00" fill="#000000">user_id</text>
<text text-anchor="start" x="854.5827" y="-171.3536" font-family="Times,serif" font-size="10.00" fill="#000000">: NUMBER</text>
<polygon fill="none" stroke="#000000" points="820.3912,-140.3536 820.3912,-162.3536 907.3912,-162.3536 907.3912,-140.3536 820.3912,-140.3536"/>
<text text-anchor="start" x="825.3912" y="-149.3536" font-family="Times,serif" text-decoration="underline" font-size="10.00" fill="#000000">role_id</text>
<text text-anchor="start" x="853.7172" y="-149.3536" font-family="Times,serif" font-size="10.00" fill="#000000">: NUMBER</text>
</g>
<!-- Role&#45;&gt;user_role -->
<g id="edge1" class="edge">
<title>Role&#45;&gt;user_role</title>
<path fill="none" stroke="#000000" stroke-width=".75" d="M964.8126,-103.7621C948.2074,-118.758 929.0006,-136.1033 911.7973,-151.6392"/>
<polygon fill="#000000" stroke="#000000" stroke-width=".75" points="911.455,-151.9483 905.1924,-153.9658 909.2285,-153.959 907.002,-155.9697 907.002,-155.9697 907.002,-155.9697 909.2285,-153.959 908.8116,-157.9735 911.455,-151.9483 911.455,-151.9483"/>
</g>
<!-- Salary -->
<g id="node7" class="node">
<title>Salary</title>
<polygon fill="#add8e6" stroke="transparent" points="391.9087,-170.9906 391.9087,-192.9906 479.9087,-192.9906 479.9087,-170.9906 391.9087,-170.9906"/>
<polygon fill="none" stroke="#000000" points="391.9087,-170.9906 391.9087,-192.9906 479.9087,-192.9906 479.9087,-170.9906 391.9087,-170.9906"/>
<text text-anchor="start" x="423.1362" y="-179.9906" font-family="Times,serif" font-weight="bold" font-size="10.00" fill="#000000">Salary</text>
<polygon fill="none" stroke="#000000" points="391.9087,-148.9906 391.9087,-170.9906 479.9087,-170.9906 479.9087,-148.9906 391.9087,-148.9906"/>
<text text-anchor="start" x="396.9087" y="-157.9906" font-family="Times,serif" text-decoration="underline" font-size="10.00" fill="#000000">id</text>
<text text-anchor="start" x="404.6877" y="-157.9906" font-family="Times,serif" font-size="10.00" fill="#000000">: NUMBER</text>
<polygon fill="none" stroke="#000000" points="391.9087,-126.9906 391.9087,-148.9906 479.9087,-148.9906 479.9087,-126.9906 391.9087,-126.9906"/>
<text text-anchor="start" x="396.8837" y="-134.9906" font-family="Times,serif" font-size="10.00" fill="#000000">amount: NUMBER</text>
<polygon fill="none" stroke="#000000" points="391.9087,-104.9906 391.9087,-126.9906 479.9087,-126.9906 479.9087,-104.9906 391.9087,-104.9906"/>
<text text-anchor="start" x="396.9087" y="-112.9906" font-family="Times,serif" font-size="10.00" fill="#000000">createdAt: DATE</text>
<polygon fill="none" stroke="#000000" points="391.9087,-82.9906 391.9087,-104.9906 479.9087,-104.9906 479.9087,-82.9906 391.9087,-82.9906"/>
<text text-anchor="start" x="396.9087" y="-90.9906" font-family="Times,serif" font-size="10.00" fill="#000000">updatedAt: DATE</text>
<polygon fill="none" stroke="#000000" points="391.9087,-60.9906 391.9087,-82.9906 479.9087,-82.9906 479.9087,-60.9906 391.9087,-60.9906"/>
<text text-anchor="start" x="396.9087" y="-69.9906" font-family="Times,serif" font-style="italic" text-decoration="underline" font-size="10.00" fill="#000000">UserId</text>
<text text-anchor="start" x="424.1137" y="-69.9906" font-family="Times,serif" font-size="10.00" fill="#000000">: NUMBER</text>
</g>
<!-- User&#45;&gt;Salary -->
<g id="edge5" class="edge">
<title>User&#45;&gt;Salary</title>
<path fill="none" stroke="#000000" stroke-width=".75" d="M641.9387,-313.0518C597.5821,-272.9943 530.3832,-212.3084 484.8946,-171.2286"/>
<polygon fill="#000000" stroke="#000000" stroke-width=".75" points="484.7395,-171.0885 482.0961,-165.0633 482.513,-169.0778 480.2865,-167.0672 480.2865,-167.0672 480.2865,-167.0672 482.513,-169.0778 478.4769,-169.071 484.7395,-171.0885 484.7395,-171.0885"/>
</g>
<!-- User&#45;&gt;user_role -->
<g id="edge2" class="edge">
<title>User&#45;&gt;user_role</title>
<path fill="none" stroke="#000000" stroke-width=".75" d="M733.2542,-312.8775C758.3602,-290.2049 789.4781,-262.103 814.9892,-239.0644"/>
<polygon fill="#000000" stroke="#000000" stroke-width=".75" points="815.2318,-238.8454 821.4944,-236.8278 817.4583,-236.8347 819.6847,-234.824 819.6847,-234.824 819.6847,-234.824 817.4583,-236.8347 817.8751,-232.8202 815.2318,-238.8454 815.2318,-238.8454"/>
</g>
<!-- Invoice -->
<g id="node8" class="node">
<title>Invoice</title>
<polygon fill="#add8e6" stroke="transparent" points="390.9087,-647.4038 390.9087,-669.4038 480.9087,-669.4038 480.9087,-647.4038 390.9087,-647.4038"/>
<polygon fill="none" stroke="#000000" points="390.9087,-647.4038 390.9087,-669.4038 480.9087,-669.4038 480.9087,-647.4038 390.9087,-647.4038"/>
<text text-anchor="start" x="420.9157" y="-656.4038" font-family="Times,serif" font-weight="bold" font-size="10.00" fill="#000000">Invoice</text>
<polygon fill="none" stroke="#000000" points="390.9087,-625.4038 390.9087,-647.4038 480.9087,-647.4038 480.9087,-625.4038 390.9087,-625.4038"/>
<text text-anchor="start" x="395.9087" y="-634.4038" font-family="Times,serif" text-decoration="underline" font-size="10.00" fill="#000000">id</text>
<text text-anchor="start" x="403.6877" y="-634.4038" font-family="Times,serif" font-size="10.00" fill="#000000">: NUMBER</text>
<polygon fill="none" stroke="#000000" points="390.9087,-603.4038 390.9087,-625.4038 480.9087,-625.4038 480.9087,-603.4038 390.9087,-603.4038"/>
<text text-anchor="start" x="395.4942" y="-611.4038" font-family="Times,serif" font-size="10.00" fill="#000000">quantity: NUMBER</text>
<polygon fill="none" stroke="#000000" points="390.9087,-581.4038 390.9087,-603.4038 480.9087,-603.4038 480.9087,-581.4038 390.9087,-581.4038"/>
<text text-anchor="start" x="395.9087" y="-589.4038" font-family="Times,serif" font-size="10.00" fill="#000000">total: STRING</text>
<polygon fill="none" stroke="#000000" points="390.9087,-559.4038 390.9087,-581.4038 480.9087,-581.4038 480.9087,-559.4038 390.9087,-559.4038"/>
<text text-anchor="start" x="395.9087" y="-567.4038" font-family="Times,serif" font-size="10.00" fill="#000000">item: STRING</text>
<polygon fill="none" stroke="#000000" points="390.9087,-537.4038 390.9087,-559.4038 480.9087,-559.4038 480.9087,-537.4038 390.9087,-537.4038"/>
<text text-anchor="start" x="395.9087" y="-545.4038" font-family="Times,serif" font-size="10.00" fill="#000000">createdAt: DATE</text>
<polygon fill="none" stroke="#000000" points="390.9087,-515.4038 390.9087,-537.4038 480.9087,-537.4038 480.9087,-515.4038 390.9087,-515.4038"/>
<text text-anchor="start" x="395.9087" y="-523.4038" font-family="Times,serif" font-size="10.00" fill="#000000">updatedAt: DATE</text>
<polygon fill="none" stroke="#000000" points="390.9087,-493.4038 390.9087,-515.4038 480.9087,-515.4038 480.9087,-493.4038 390.9087,-493.4038"/>
<text text-anchor="start" x="395.9087" y="-502.4038" font-family="Times,serif" font-style="italic" text-decoration="underline" font-size="10.00" fill="#000000">UserId</text>
<text text-anchor="start" x="423.1137" y="-502.4038" font-family="Times,serif" font-size="10.00" fill="#000000">: NUMBER</text>
</g>
<!-- Invoice&#45;&gt;User -->
<g id="edge6" class="edge">
<title>Invoice&#45;&gt;User</title>
<path fill="none" stroke="#000000" stroke-width=".75" d="M485.7805,-536.3657C531.1853,-495.3616 597.6735,-435.3175 641.7444,-395.5181"/>
<polygon fill="#000000" stroke="#000000" stroke-width=".75" points="485.6318,-536.5 479.3692,-538.5175 483.4053,-538.5107 481.1788,-540.5214 481.1788,-540.5214 481.1788,-540.5214 483.4053,-538.5107 482.9884,-542.5252 485.6318,-536.5 485.6318,-536.5"/>
</g>
</g>
</svg>
